<svg xmlns="http://www.w3.org/2000/svg" xmlns:xlink="http://www.w3.org/1999/xlink" viewBox="0 0 500 500"><defs><clipPath id="freepik--clip-path--inject-157"><path d="M229.58,166.25s13.62-15.62,33.49-15.62c0,0,.66-12.12,14.22-14.74s16.19,9.49,16.19,9.49,10-5.32,23.48,0,10.72,20.82,10.72,20.82,38.82-1.26,45.48,5.85H198.71S202.23,163.35,229.58,166.25Z" style="fill:none;stroke:#263238;stroke-linecap:round;stroke-linejoin:round"></path></clipPath><clipPath id="freepik--clip-path-2--inject-157"><path d="M342.13,73.64s-10.87-12.45-26.71-12.45c0,0-.53-9.67-11.34-11.76S291.16,57,291.16,57s-8-4.24-18.72,0-8.56,16.61-8.56,16.61-31-1-36.27,4.66H366.75S363.94,71.33,342.13,73.64Z" style="fill:none;stroke:#263238;stroke-linecap:round;stroke-linejoin:round"></path></clipPath><clipPath id="freepik--clip-path-3--inject-157"><path d="M89.9,116.91s6.45-7.4,15.87-7.4a7.87,7.87,0,0,1,6.73-7c6.42-1.24,7.67,4.49,7.67,4.49a14,14,0,0,1,11.12,0c6.38,2.52,5.09,9.87,5.09,9.87s18.38-.6,21.54,2.77H75.28S76.94,115.53,89.9,116.91Z" style="fill:none;stroke:#263238;stroke-linecap:round;stroke-linejoin:round"></path></clipPath><clipPath id="freepik--clip-path-4--inject-157"><path d="M188.72,287.92s6.45-7.4,15.87-7.4a7.86,7.86,0,0,1,6.73-7C217.74,272.3,219,278,219,278a14,14,0,0,1,11.12,0c6.38,2.51,5.09,9.87,5.09,9.87s18.38-.6,21.54,2.77H174.1S175.76,286.54,188.72,287.92Z" style="fill:none;stroke:#263238;stroke-linecap:round;stroke-linejoin:round"></path></clipPath><clipPath id="freepik--clip-path-5--inject-157"><path d="M30.84,318.11s1.94,5.12,8,13C46.67,341.37,61.47,356.3,88,370.62c46.8,25.3,76.42,67.34,76.42,67.34l27.23-86.79s-12.11-.88-29.15-13C150.87,330,137,316.58,123.14,294.76,88.86,240.85,53,229.16,53,229.16" style="fill:#fff;stroke:#263238;stroke-linecap:round;stroke-linejoin:round"></path></clipPath><clipPath id="freepik--clip-path-6--inject-157"><path d="M465.6,310.11s-1.94,5.12-8,13c-7.86,10.26-22.66,25.19-49.14,39.51-46.8,25.3-76.42,67.34-76.42,67.34l-27.23-86.79s12.11-.88,29.15-13c11.58-8.22,25.44-21.61,39.31-43.43,34.28-53.91,70.15-65.6,70.15-65.6" style="fill:#fff;stroke:#263238;stroke-linecap:round;stroke-linejoin:round"></path></clipPath><clipPath id="freepik--clip-path-7--inject-157"><path d="M255.78,257.76s-15.93-9.18-2.88-42.35,52.28-43.23,61.15-53.23C314.05,162.18,310.47,264.05,255.78,257.76Z" style="fill:#92E3A9;stroke:#263238;stroke-linecap:round;stroke-linejoin:round"></path></clipPath><clipPath id="freepik--clip-path-8--inject-157"><path d="M236.79,345.25s6.8-119.76,64.51-165c0,0-53.54,44.23-56.3,165Z" style="fill:#92E3A9;stroke:#263238;stroke-linecap:round;stroke-linejoin:round"></path></clipPath><clipPath id="freepik--clip-path-9--inject-157"><path d="M231.39,220.41s14.25-8.21,2.57-37.88-46.76-38.67-54.69-47.61C179.27,134.92,182.47,226,231.39,220.41Z" style="fill:#92E3A9;stroke:#263238;stroke-linecap:round;stroke-linejoin:round"></path></clipPath><clipPath id="freepik--clip-path-10--inject-157"><path d="M246,293.81s-3.7-102.26-55.31-142.76c0,0,49.69,44.51,50.42,159.05,0,0,1.62.32,2.49-2.32" style="fill:#92E3A9;stroke:#263238;stroke-linecap:round;stroke-linejoin:round"></path></clipPath></defs><g id="freepik--background-simple--inject-157"><path d="M67.93,167.09s-27.88,72,11.3,144.5S199.11,422.39,263.7,455.14s131.66,16.8,163.53-36.84-11.84-91.93-11.9-168.42,11.45-96.74-30-161.36-143.06-78.93-219.9-31S67.93,167.09,67.93,167.09Z" style="fill:#fff;opacity:0.7000000000000001"></path><path d="M80.12,157.92c28.82-53.06,101.32-115,200.79-89.2S447.57,149.1,436.56,244.06,367.68,417.92,243,420.23,16.92,274.27,80.12,157.92Z" style="fill:#92E3A9"></path><path d="M80.12,157.92c28.82-53.06,101.32-115,200.79-89.2S447.57,149.1,436.56,244.06,367.68,417.92,243,420.23,16.92,274.27,80.12,157.92Z" style="fill:#fff;opacity:0.7000000000000001"></path></g></svg>